M48
;GenerationSoftware,Autodesk,EAGLE,9.6.2*%
;CreationDate,2025-05-12T09:11:20Z*%
FMAT,2
ICI,OFF
METRIC,TZ,000.000
T2C1.016
T1C1.200
%
G90
M71
T1
X23250Y28500
X26000Y15500
X26000Y3500
X33750Y17000
X23500Y21000
X20000Y22750
X33000Y21750
X32000Y13750
X31000Y39000
X37000Y45000
X67500Y37250
X21250Y35750
X53000Y41000
X55500Y24250
X41000Y40750
X50750Y26000
X31000Y41250
X30750Y35250
X30500Y43500
X49500Y29500
X32750Y43000
X57250Y22750
X38250Y27750
X27750Y43500
X27750Y30750
X50000Y17000
X43250Y23750
X30500Y30750
X56750Y15500
X5500Y25750
X11250Y37500
X32250Y37000
X22000Y7250
X21750Y26750
X35250Y21750
X14500Y23250
X45000Y19750
X40000Y25500
X69000Y22250
T2
X8950Y32780
X11490Y32780
X8950Y30240
X11490Y30240
X8950Y27700
X11490Y27700
X8950Y25160
X11490Y25160
X8950Y22620
X11490Y22620
X70799Y3969
X75321Y3969
X70799Y10471
X75321Y10471
X61799Y3969
X66321Y3969
X61799Y10471
X66321Y10471
X52749Y3969
X57271Y3969
X52749Y10471
X57271Y10471
X42749Y3969
X47271Y3969
X42749Y10471
X47271Y10471
X33749Y3969
X38271Y3969
X33749Y10471
X38271Y10471
X23749Y3969
X28271Y3969
X23749Y10471
X28271Y10471
X14749Y3969
X19271Y3969
X14749Y10471
X19271Y10471
X5859Y3969
X10381Y3969
X5859Y10471
X10381Y10471
M30