G04 EAGLE Gerber RS-274X export*
G75*
%MOMM*%
%FSLAX34Y34*%
%LPD*%
%INSolderpaste Top*%
%IPPOS*%
%AMOC8*
5,1,8,0,0,1.08239X$1,22.5*%
G01*
%ADD10R,0.558800X1.981200*%
%ADD11R,1.200000X1.200000*%
%ADD12R,1.500000X1.300000*%


D10*
X352400Y284312D03*
X339700Y284312D03*
X327000Y284312D03*
X314300Y284312D03*
X301600Y284312D03*
X288900Y284312D03*
X276200Y284312D03*
X263500Y284312D03*
X250800Y284312D03*
X250800Y193888D03*
X263500Y193888D03*
X276200Y193888D03*
X288900Y193888D03*
X301600Y193888D03*
X314300Y193888D03*
X327000Y193888D03*
X339700Y193888D03*
X352400Y193888D03*
X526300Y187288D03*
X539000Y187288D03*
X551700Y187288D03*
X564400Y187288D03*
X577100Y187288D03*
X589800Y187288D03*
X602500Y187288D03*
X615200Y187288D03*
X627900Y187288D03*
X627900Y277712D03*
X615200Y277712D03*
X602500Y277712D03*
X589800Y277712D03*
X577100Y277712D03*
X564400Y277712D03*
X551700Y277712D03*
X539000Y277712D03*
X526300Y277712D03*
D11*
X690000Y410500D03*
X690000Y389500D03*
X630000Y410500D03*
X630000Y389500D03*
X570000Y410500D03*
X570000Y389500D03*
X510000Y410500D03*
X510000Y389500D03*
X450000Y410500D03*
X450000Y389500D03*
X390000Y410500D03*
X390000Y389500D03*
X330000Y410500D03*
X330000Y389500D03*
X260000Y410500D03*
X260000Y389500D03*
D12*
X191200Y343000D03*
X191200Y362000D03*
X261200Y451400D03*
X261200Y470400D03*
X711200Y182200D03*
X711200Y201200D03*
X691200Y451400D03*
X691200Y470400D03*
X631200Y451400D03*
X631200Y470400D03*
X571200Y451400D03*
X571200Y470400D03*
X511200Y451400D03*
X511200Y470400D03*
X451200Y451400D03*
X451200Y470400D03*
X392300Y451400D03*
X392300Y470400D03*
X332300Y451400D03*
X332300Y470400D03*
M02*
