G04 EAGLE Gerber RS-274X export*
G75*
%MOMM*%
%FSLAX34Y34*%
%LPD*%
%INSoldermask Top*%
%IPPOS*%
%AMOC8*
5,1,8,0,0,1.08239X$1,22.5*%
G01*
%ADD10C,2.082800*%
%ADD11R,0.762000X2.184400*%
%ADD12R,1.403200X1.403200*%
%ADD13R,1.703200X1.503200*%
%ADD14C,1.727200*%
%ADD15C,2.003200*%


D10*
X89500Y327800D03*
X114900Y327800D03*
X89500Y302400D03*
X114900Y302400D03*
X89500Y277000D03*
X114900Y277000D03*
X89500Y251600D03*
X114900Y251600D03*
X89500Y226200D03*
X114900Y226200D03*
D11*
X352400Y284312D03*
X339700Y284312D03*
X327000Y284312D03*
X314300Y284312D03*
X301600Y284312D03*
X288900Y284312D03*
X276200Y284312D03*
X263500Y284312D03*
X250800Y284312D03*
X250800Y193888D03*
X263500Y193888D03*
X276200Y193888D03*
X288900Y193888D03*
X301600Y193888D03*
X314300Y193888D03*
X327000Y193888D03*
X339700Y193888D03*
X352400Y193888D03*
X526300Y187288D03*
X539000Y187288D03*
X551700Y187288D03*
X564400Y187288D03*
X577100Y187288D03*
X589800Y187288D03*
X602500Y187288D03*
X615200Y187288D03*
X627900Y187288D03*
X627900Y277712D03*
X615200Y277712D03*
X602500Y277712D03*
X589800Y277712D03*
X577100Y277712D03*
X564400Y277712D03*
X551700Y277712D03*
X539000Y277712D03*
X526300Y277712D03*
D12*
X690000Y410500D03*
X690000Y389500D03*
X630000Y410500D03*
X630000Y389500D03*
X570000Y410500D03*
X570000Y389500D03*
X510000Y410500D03*
X510000Y389500D03*
X450000Y410500D03*
X450000Y389500D03*
X390000Y410500D03*
X390000Y389500D03*
X330000Y410500D03*
X330000Y389500D03*
X260000Y410500D03*
X260000Y389500D03*
D13*
X191200Y343000D03*
X191200Y362000D03*
X261200Y451400D03*
X261200Y470400D03*
X711200Y182200D03*
X711200Y201200D03*
X691200Y451400D03*
X691200Y470400D03*
X631200Y451400D03*
X631200Y470400D03*
X571200Y451400D03*
X571200Y470400D03*
X511200Y451400D03*
X511200Y470400D03*
X451200Y451400D03*
X451200Y470400D03*
X392300Y451400D03*
X392300Y470400D03*
X332300Y451400D03*
X332300Y470400D03*
D14*
X707994Y47308D02*
X707994Y32068D01*
X753206Y32068D02*
X753206Y47308D01*
X707994Y97092D02*
X707994Y112332D01*
X753206Y112332D02*
X753206Y97092D01*
X617994Y47308D02*
X617994Y32068D01*
X663206Y32068D02*
X663206Y47308D01*
X617994Y97092D02*
X617994Y112332D01*
X663206Y112332D02*
X663206Y97092D01*
X527494Y47308D02*
X527494Y32068D01*
X572706Y32068D02*
X572706Y47308D01*
X527494Y97092D02*
X527494Y112332D01*
X572706Y112332D02*
X572706Y97092D01*
X427494Y47308D02*
X427494Y32068D01*
X472706Y32068D02*
X472706Y47308D01*
X427494Y97092D02*
X427494Y112332D01*
X472706Y112332D02*
X472706Y97092D01*
X337494Y47308D02*
X337494Y32068D01*
X382706Y32068D02*
X382706Y47308D01*
X337494Y97092D02*
X337494Y112332D01*
X382706Y112332D02*
X382706Y97092D01*
X237494Y47308D02*
X237494Y32068D01*
X282706Y32068D02*
X282706Y47308D01*
X237494Y97092D02*
X237494Y112332D01*
X282706Y112332D02*
X282706Y97092D01*
X147494Y47308D02*
X147494Y32068D01*
X192706Y32068D02*
X192706Y47308D01*
X147494Y97092D02*
X147494Y112332D01*
X192706Y112332D02*
X192706Y97092D01*
X58594Y47308D02*
X58594Y32068D01*
X103806Y32068D02*
X103806Y47308D01*
X58594Y97092D02*
X58594Y112332D01*
X103806Y112332D02*
X103806Y97092D01*
D15*
X232500Y285000D03*
X260000Y155000D03*
X260000Y35000D03*
X337500Y170000D03*
X235000Y210000D03*
X200000Y227500D03*
X330000Y217500D03*
X320000Y137500D03*
X310000Y390000D03*
X370000Y450000D03*
X675000Y372500D03*
X212500Y357500D03*
X530000Y410000D03*
X555000Y242500D03*
X410000Y407500D03*
X507500Y260000D03*
X310000Y412500D03*
X307500Y352500D03*
X305000Y435000D03*
X495000Y295000D03*
X327500Y430000D03*
X572500Y227500D03*
X382500Y277500D03*
X277500Y435000D03*
X277500Y307500D03*
X500000Y170000D03*
X432500Y237500D03*
X305000Y307500D03*
X567500Y155000D03*
X55000Y257500D03*
X112500Y375000D03*
X322500Y370000D03*
X220000Y72500D03*
X217500Y267500D03*
X352500Y217500D03*
X145000Y232500D03*
X450000Y197500D03*
X400000Y255000D03*
X690000Y222500D03*
M02*
